<svg xmlns="http://www.w3.org/2000/svg" viewBox="0 0 1000 1000" width="1000" height="1000">
  <path fill="#df5a20" d="M408.242 382.556 500 0l91.758 382.556z"/>
  <path fill="#f89c10" d="M479.258 352.412 750 66.988 638.186 444.169z"/>
  <path fill="#df5a20" d="M555.831 361.814 933.013 250 647.588 520.742z"/>
  <path fill="#b5d222" d="M617.444 408.242 1000 500l-382.556 91.758z"/>
  <path fill="#fddf1e" d="M647.588 479.258 933.013 750 555.831 638.186z"/>
  <path fill="#f89c10" d="M638.186 555.831 750 933.013 479.258 647.588z"/>
  <path fill="#df5a20" d="M591.758 617.444 500 1000l-91.758-382.556z"/>
  <path fill="#f89c10" d="M520.742 647.588 250 933.013l111.814-377.182z"/>
  <path fill="#fddf1e" d="M444.169 638.186 66.988 750l285.424-270.742z"/>
  <path fill="#b5d222" d="M382.556 591.758 0 500l382.556-91.758z"/>
  <path fill="#24a6e1" d="M352.412 520.742 66.988 250l377.181 111.814z"/>
  <path fill="#815e98" d="M361.814 444.169 250 66.988l270.742 285.424z"/>
  <circle cx="500" cy="500" r="200" fill="#13b6a5"/>
</svg>
